ISO-10303-21;
HEADER;
/* Generated by software containing ST-Developer
 * from STEP Tools, Inc. (www.steptools.com) 
 */

FILE_DESCRIPTION(
/* description */ (''),
/* implementation_level */ '2;1');

FILE_NAME(
/* name */ 'BackCover.step',
/* time_stamp */ '2026-05-28T11:43:07+05:30',
/* author */ (''),
/* organization */ (''),
/* preprocessor_version */ 'ST-DEVELOPER v20.1',
/* originating_system */ 'Autodesk Translation Framework v15.8.0.0',
/* authorisation */ '');

FILE_SCHEMA (('AUTOMOTIVE_DESIGN { 1 0 10303 214 3 1 1 }'));
ENDSEC;

DATA;
#10=MECHANICAL_DESIGN_GEOMETRIC_PRESENTATION_REPRESENTATION('',(#13),#873);
#11=SHAPE_REPRESENTATION_RELATIONSHIP('SRR','None',#880,#12);
#12=ADVANCED_BREP_SHAPE_REPRESENTATION('',(#14),#872);
#13=STYLED_ITEM('',(#889),#14);
#14=MANIFOLD_SOLID_BREP('Body1',#521);
#15=FACE_BOUND('',#90,.T.);
#16=FACE_BOUND('',#91,.T.);
#17=FACE_BOUND('',#93,.T.);
#18=PLANE('',#538);
#19=PLANE('',#542);
#20=PLANE('',#549);
#21=PLANE('',#550);
#22=PLANE('',#551);
#23=PLANE('',#552);
#24=PLANE('',#553);
#25=PLANE('',#554);
#26=PLANE('',#555);
#27=PLANE('',#556);
#28=PLANE('',#557);
#29=PLANE('',#558);
#30=PLANE('',#559);
#31=PLANE('',#560);
#32=PLANE('',#564);
#33=PLANE('',#568);
#34=PLANE('',#572);
#35=PLANE('',#576);
#36=PLANE('',#577);
#37=FACE_OUTER_BOUND('',#64,.T.);
#38=FACE_OUTER_BOUND('',#65,.T.);
#39=FACE_OUTER_BOUND('',#66,.T.);
#40=FACE_OUTER_BOUND('',#67,.T.);
#41=FACE_OUTER_BOUND('',#68,.T.);
#42=FACE_OUTER_BOUND('',#69,.T.);
#43=FACE_OUTER_BOUND('',#70,.T.);
#44=FACE_OUTER_BOUND('',#71,.T.);
#45=FACE_OUTER_BOUND('',#72,.T.);
#46=FACE_OUTER_BOUND('',#73,.T.);
#47=FACE_OUTER_BOUND('',#74,.T.);
#48=FACE_OUTER_BOUND('',#75,.T.);
#49=FACE_OUTER_BOUND('',#76,.T.);
#50=FACE_OUTER_BOUND('',#77,.T.);
#51=FACE_OUTER_BOUND('',#78,.T.);
#52=FACE_OUTER_BOUND('',#79,.T.);
#53=FACE_OUTER_BOUND('',#80,.T.);
#54=FACE_OUTER_BOUND('',#81,.T.);
#55=FACE_OUTER_BOUND('',#82,.T.);
#56=FACE_OUTER_BOUND('',#83,.T.);
#57=FACE_OUTER_BOUND('',#84,.T.);
#58=FACE_OUTER_BOUND('',#85,.T.);
#59=FACE_OUTER_BOUND('',#86,.T.);
#60=FACE_OUTER_BOUND('',#87,.T.);
#61=FACE_OUTER_BOUND('',#88,.T.);
#62=FACE_OUTER_BOUND('',#89,.T.);
#63=FACE_OUTER_BOUND('',#92,.T.);
#64=EDGE_LOOP('',(#342,#343,#344,#345));
#65=EDGE_LOOP('',(#346,#347,#348,#349));
#66=EDGE_LOOP('',(#350,#351,#352,#353));
#67=EDGE_LOOP('',(#354,#355,#356,#357));
#68=EDGE_LOOP('',(#358,#359,#360,#361));
#69=EDGE_LOOP('',(#362,#363,#364,#365));
#70=EDGE_LOOP('',(#366,#367,#368,#369));
#71=EDGE_LOOP('',(#370,#371,#372,#373));
#72=EDGE_LOOP('',(#374,#375,#376,#377));
#73=EDGE_LOOP('',(#378,#379,#380,#381));
#74=EDGE_LOOP('',(#382,#383,#384,#385));
#75=EDGE_LOOP('',(#386,#387,#388,#389));
#76=EDGE_LOOP('',(#390,#391,#392,#393));
#77=EDGE_LOOP('',(#394,#395,#396,#397));
#78=EDGE_LOOP('',(#398,#399,#400,#401));
#79=EDGE_LOOP('',(#402,#403,#404,#405,#406,#407,#408,#409));
#80=EDGE_LOOP('',(#410,#411,#412,#413));
#81=EDGE_LOOP('',(#414,#415,#416,#417));
#82=EDGE_LOOP('',(#418,#419,#420,#421));
#83=EDGE_LOOP('',(#422,#423,#424,#425));
#84=EDGE_LOOP('',(#426,#427,#428,#429));
#85=EDGE_LOOP('',(#430,#431,#432,#433));
#86=EDGE_LOOP('',(#434,#435,#436,#437));
#87=EDGE_LOOP('',(#438,#439,#440,#441));
#88=EDGE_LOOP('',(#442,#443,#444,#445));
#89=EDGE_LOOP('',(#446,#447,#448,#449,#450,#451,#452,#453));
#90=EDGE_LOOP('',(#454,#455,#456,#457,#458,#459,#460,#461));
#91=EDGE_LOOP('',(#462,#463,#464,#465,#466,#467,#468,#469));
#92=EDGE_LOOP('',(#470,#471,#472,#473,#474,#475,#476,#477));
#93=EDGE_LOOP('',(#478,#479,#480,#481,#482,#483,#484,#485));
#94=LINE('',#728,#150);
#95=LINE('',#731,#151);
#96=LINE('',#734,#152);
#97=LINE('',#736,#153);
#98=LINE('',#737,#154);
#99=LINE('',#743,#155);
#100=LINE('',#746,#156);
#101=LINE('',#749,#157);
#102=LINE('',#751,#158);
#103=LINE('',#752,#159);
#104=LINE('',#758,#160);
#105=LINE('',#763,#161);
#106=LINE('',#766,#162);
#107=LINE('',#767,#163);
#108=LINE('',#771,#164);
#109=LINE('',#773,#165);
#110=LINE('',#775,#166);
#111=LINE('',#776,#167);
#112=LINE('',#779,#168);
#113=LINE('',#781,#169);
#114=LINE('',#782,#170);
#115=LINE('',#785,#171);
#116=LINE('',#787,#172);
#117=LINE('',#788,#173);
#118=LINE('',#791,#174);
#119=LINE('',#793,#175);
#120=LINE('',#794,#176);
#121=LINE('',#797,#177);
#122=LINE('',#799,#178);
#123=LINE('',#800,#179);
#124=LINE('',#803,#180);
#125=LINE('',#805,#181);
#126=LINE('',#806,#182);
#127=LINE('',#809,#183);
#128=LINE('',#811,#184);
#129=LINE('',#812,#185);
#130=LINE('',#814,#186);
#131=LINE('',#815,#187);
#132=LINE('',#818,#188);
#133=LINE('',#819,#189);
#134=LINE('',#823,#190);
#135=LINE('',#825,#191);
#136=LINE('',#827,#192);
#137=LINE('',#828,#193);
#138=LINE('',#834,#194);
#139=LINE('',#837,#195);
#140=LINE('',#839,#196);
#141=LINE('',#840,#197);
#142=LINE('',#846,#198);
#143=LINE('',#849,#199);
#144=LINE('',#851,#200);
#145=LINE('',#852,#201);
#146=LINE('',#858,#202);
#147=LINE('',#861,#203);
#148=LINE('',#863,#204);
#149=LINE('',#864,#205);
#150=VECTOR('',#584,10.);
#151=VECTOR('',#587,10.);
#152=VECTOR('',#590,10.);
#153=VECTOR('',#591,10.);
#154=VECTOR('',#592,10.);
#155=VECTOR('',#597,10.);
#156=VECTOR('',#600,10.);
#157=VECTOR('',#603,10.);
#158=VECTOR('',#604,10.);
#159=VECTOR('',#605,10.);
#160=VECTOR('',#612,10.);
#161=VECTOR('',#617,10.);
#162=VECTOR('',#622,10.);
#163=VECTOR('',#623,10.);
#164=VECTOR('',#626,10.);
#165=VECTOR('',#627,10.);
#166=VECTOR('',#628,10.);
#167=VECTOR('',#629,10.);
#168=VECTOR('',#632,10.);
#169=VECTOR('',#633,10.);
#170=VECTOR('',#634,10.);
#171=VECTOR('',#637,10.);
#172=VECTOR('',#638,10.);
#173=VECTOR('',#639,10.);
#174=VECTOR('',#642,10.);
#175=VECTOR('',#643,10.);
#176=VECTOR('',#644,10.);
#177=VECTOR('',#647,10.);
#178=VECTOR('',#648,10.);
#179=VECTOR('',#649,10.);
#180=VECTOR('',#652,10.);
#181=VECTOR('',#653,10.);
#182=VECTOR('',#654,10.);
#183=VECTOR('',#657,10.);
#184=VECTOR('',#658,10.);
#185=VECTOR('',#659,10.);
#186=VECTOR('',#662,10.);
#187=VECTOR('',#663,10.);
#188=VECTOR('',#668,10.);
#189=VECTOR('',#669,10.);
#190=VECTOR('',#672,10.);
#191=VECTOR('',#673,10.);
#192=VECTOR('',#674,10.);
#193=VECTOR('',#675,10.);
#194=VECTOR('',#682,10.);
#195=VECTOR('',#685,10.);
#196=VECTOR('',#686,10.);
#197=VECTOR('',#687,10.);
#198=VECTOR('',#694,10.);
#199=VECTOR('',#697,10.);
#200=VECTOR('',#698,10.);
#201=VECTOR('',#699,10.);
#202=VECTOR('',#706,10.);
#203=VECTOR('',#709,10.);
#204=VECTOR('',#710,10.);
#205=VECTOR('',#711,10.);
#206=CIRCLE('',#536,2.2);
#207=CIRCLE('',#537,2.2);
#208=CIRCLE('',#540,2.2);
#209=CIRCLE('',#541,2.2);
#210=CIRCLE('',#544,2.2);
#211=CIRCLE('',#545,2.2);
#212=CIRCLE('',#547,2.2);
#213=CIRCLE('',#548,2.2);
#214=CIRCLE('',#562,5.);
#215=CIRCLE('',#563,5.);
#216=CIRCLE('',#566,5.);
#217=CIRCLE('',#567,5.);
#218=CIRCLE('',#570,5.);
#219=CIRCLE('',#571,5.);
#220=CIRCLE('',#574,5.);
#221=CIRCLE('',#575,5.);
#222=VERTEX_POINT('',#724);
#223=VERTEX_POINT('',#725);
#224=VERTEX_POINT('',#727);
#225=VERTEX_POINT('',#729);
#226=VERTEX_POINT('',#733);
#227=VERTEX_POINT('',#735);
#228=VERTEX_POINT('',#739);
#229=VERTEX_POINT('',#740);
#230=VERTEX_POINT('',#742);
#231=VERTEX_POINT('',#744);
#232=VERTEX_POINT('',#748);
#233=VERTEX_POINT('',#750);
#234=VERTEX_POINT('',#754);
#235=VERTEX_POINT('',#756);
#236=VERTEX_POINT('',#760);
#237=VERTEX_POINT('',#762);
#238=VERTEX_POINT('',#769);
#239=VERTEX_POINT('',#770);
#240=VERTEX_POINT('',#772);
#241=VERTEX_POINT('',#774);
#242=VERTEX_POINT('',#778);
#243=VERTEX_POINT('',#780);
#244=VERTEX_POINT('',#784);
#245=VERTEX_POINT('',#786);
#246=VERTEX_POINT('',#790);
#247=VERTEX_POINT('',#792);
#248=VERTEX_POINT('',#796);
#249=VERTEX_POINT('',#798);
#250=VERTEX_POINT('',#802);
#251=VERTEX_POINT('',#804);
#252=VERTEX_POINT('',#808);
#253=VERTEX_POINT('',#810);
#254=VERTEX_POINT('',#821);
#255=VERTEX_POINT('',#822);
#256=VERTEX_POINT('',#824);
#257=VERTEX_POINT('',#826);
#258=VERTEX_POINT('',#830);
#259=VERTEX_POINT('',#832);
#260=VERTEX_POINT('',#836);
#261=VERTEX_POINT('',#838);
#262=VERTEX_POINT('',#842);
#263=VERTEX_POINT('',#844);
#264=VERTEX_POINT('',#848);
#265=VERTEX_POINT('',#850);
#266=VERTEX_POINT('',#854);
#267=VERTEX_POINT('',#856);
#268=VERTEX_POINT('',#860);
#269=VERTEX_POINT('',#862);
#270=EDGE_CURVE('',#222,#223,#206,.T.);
#271=EDGE_CURVE('',#223,#224,#94,.T.);
#272=EDGE_CURVE('',#224,#225,#207,.T.);
#273=EDGE_CURVE('',#225,#222,#95,.T.);
#274=EDGE_CURVE('',#226,#223,#96,.T.);
#275=EDGE_CURVE('',#227,#226,#97,.T.);
#276=EDGE_CURVE('',#227,#224,#98,.T.);
#277=EDGE_CURVE('',#228,#229,#208,.T.);
#278=EDGE_CURVE('',#229,#230,#99,.T.);
#279=EDGE_CURVE('',#230,#231,#209,.T.);
#280=EDGE_CURVE('',#231,#228,#100,.T.);
#281=EDGE_CURVE('',#229,#232,#101,.T.);
#282=EDGE_CURVE('',#233,#232,#102,.T.);
#283=EDGE_CURVE('',#230,#233,#103,.T.);
#284=EDGE_CURVE('',#234,#227,#210,.T.);
#285=EDGE_CURVE('',#226,#235,#211,.T.);
#286=EDGE_CURVE('',#235,#234,#104,.T.);
#287=EDGE_CURVE('',#232,#236,#212,.T.);
#288=EDGE_CURVE('',#236,#237,#105,.T.);
#289=EDGE_CURVE('',#237,#233,#213,.T.);
#290=EDGE_CURVE('',#237,#235,#106,.T.);
#291=EDGE_CURVE('',#236,#234,#107,.T.);
#292=EDGE_CURVE('',#238,#239,#108,.T.);
#293=EDGE_CURVE('',#239,#240,#109,.T.);
#294=EDGE_CURVE('',#241,#240,#110,.T.);
#295=EDGE_CURVE('',#238,#241,#111,.T.);
#296=EDGE_CURVE('',#242,#239,#112,.T.);
#297=EDGE_CURVE('',#242,#243,#113,.T.);
#298=EDGE_CURVE('',#240,#243,#114,.T.);
#299=EDGE_CURVE('',#244,#242,#115,.T.);
#300=EDGE_CURVE('',#244,#245,#116,.T.);
#301=EDGE_CURVE('',#243,#245,#117,.T.);
#302=EDGE_CURVE('',#246,#244,#118,.T.);
#303=EDGE_CURVE('',#246,#247,#119,.T.);
#304=EDGE_CURVE('',#245,#247,#120,.T.);
#305=EDGE_CURVE('',#248,#246,#121,.T.);
#306=EDGE_CURVE('',#248,#249,#122,.T.);
#307=EDGE_CURVE('',#247,#249,#123,.T.);
#308=EDGE_CURVE('',#250,#248,#124,.T.);
#309=EDGE_CURVE('',#250,#251,#125,.T.);
#310=EDGE_CURVE('',#249,#251,#126,.T.);
#311=EDGE_CURVE('',#252,#250,#127,.T.);
#312=EDGE_CURVE('',#252,#253,#128,.T.);
#313=EDGE_CURVE('',#251,#253,#129,.T.);
#314=EDGE_CURVE('',#238,#252,#130,.T.);
#315=EDGE_CURVE('',#253,#241,#131,.T.);
#316=EDGE_CURVE('',#225,#228,#132,.T.);
#317=EDGE_CURVE('',#222,#231,#133,.T.);
#318=EDGE_CURVE('',#254,#255,#134,.T.);
#319=EDGE_CURVE('',#254,#256,#135,.T.);
#320=EDGE_CURVE('',#257,#256,#136,.T.);
#321=EDGE_CURVE('',#255,#257,#137,.T.);
#322=EDGE_CURVE('',#258,#255,#214,.T.);
#323=EDGE_CURVE('',#259,#257,#215,.T.);
#324=EDGE_CURVE('',#258,#259,#138,.T.);
#325=EDGE_CURVE('',#258,#260,#139,.T.);
#326=EDGE_CURVE('',#261,#259,#140,.T.);
#327=EDGE_CURVE('',#260,#261,#141,.T.);
#328=EDGE_CURVE('',#262,#260,#216,.T.);
#329=EDGE_CURVE('',#263,#261,#217,.T.);
#330=EDGE_CURVE('',#262,#263,#142,.T.);
#331=EDGE_CURVE('',#262,#264,#143,.T.);
#332=EDGE_CURVE('',#265,#263,#144,.T.);
#333=EDGE_CURVE('',#264,#265,#145,.T.);
#334=EDGE_CURVE('',#266,#264,#218,.T.);
#335=EDGE_CURVE('',#267,#265,#219,.T.);
#336=EDGE_CURVE('',#266,#267,#146,.T.);
#337=EDGE_CURVE('',#266,#268,#147,.T.);
#338=EDGE_CURVE('',#269,#267,#148,.T.);
#339=EDGE_CURVE('',#268,#269,#149,.T.);
#340=EDGE_CURVE('',#254,#268,#220,.T.);
#341=EDGE_CURVE('',#256,#269,#221,.T.);
#342=ORIENTED_EDGE('',*,*,#270,.T.);
#343=ORIENTED_EDGE('',*,*,#271,.T.);
#344=ORIENTED_EDGE('',*,*,#272,.T.);
#345=ORIENTED_EDGE('',*,*,#273,.T.);
#346=ORIENTED_EDGE('',*,*,#271,.F.);
#347=ORIENTED_EDGE('',*,*,#274,.F.);
#348=ORIENTED_EDGE('',*,*,#275,.F.);
#349=ORIENTED_EDGE('',*,*,#276,.T.);
#350=ORIENTED_EDGE('',*,*,#277,.T.);
#351=ORIENTED_EDGE('',*,*,#278,.T.);
#352=ORIENTED_EDGE('',*,*,#279,.T.);
#353=ORIENTED_EDGE('',*,*,#280,.T.);
#354=ORIENTED_EDGE('',*,*,#278,.F.);
#355=ORIENTED_EDGE('',*,*,#281,.T.);
#356=ORIENTED_EDGE('',*,*,#282,.F.);
#357=ORIENTED_EDGE('',*,*,#283,.F.);
#358=ORIENTED_EDGE('',*,*,#284,.T.);
#359=ORIENTED_EDGE('',*,*,#275,.T.);
#360=ORIENTED_EDGE('',*,*,#285,.T.);
#361=ORIENTED_EDGE('',*,*,#286,.T.);
#362=ORIENTED_EDGE('',*,*,#287,.T.);
#363=ORIENTED_EDGE('',*,*,#288,.T.);
#364=ORIENTED_EDGE('',*,*,#289,.T.);
#365=ORIENTED_EDGE('',*,*,#282,.T.);
#366=ORIENTED_EDGE('',*,*,#286,.F.);
#367=ORIENTED_EDGE('',*,*,#290,.F.);
#368=ORIENTED_EDGE('',*,*,#288,.F.);
#369=ORIENTED_EDGE('',*,*,#291,.T.);
#370=ORIENTED_EDGE('',*,*,#292,.T.);
#371=ORIENTED_EDGE('',*,*,#293,.T.);
#372=ORIENTED_EDGE('',*,*,#294,.F.);
#373=ORIENTED_EDGE('',*,*,#295,.F.);
#374=ORIENTED_EDGE('',*,*,#296,.F.);
#375=ORIENTED_EDGE('',*,*,#297,.T.);
#376=ORIENTED_EDGE('',*,*,#298,.F.);
#377=ORIENTED_EDGE('',*,*,#293,.F.);
#378=ORIENTED_EDGE('',*,*,#299,.F.);
#379=ORIENTED_EDGE('',*,*,#300,.T.);
#380=ORIENTED_EDGE('',*,*,#301,.F.);
#381=ORIENTED_EDGE('',*,*,#297,.F.);
#382=ORIENTED_EDGE('',*,*,#302,.F.);
#383=ORIENTED_EDGE('',*,*,#303,.T.);
#384=ORIENTED_EDGE('',*,*,#304,.F.);
#385=ORIENTED_EDGE('',*,*,#300,.F.);
#386=ORIENTED_EDGE('',*,*,#305,.F.);
#387=ORIENTED_EDGE('',*,*,#306,.T.);
#388=ORIENTED_EDGE('',*,*,#307,.F.);
#389=ORIENTED_EDGE('',*,*,#303,.F.);
#390=ORIENTED_EDGE('',*,*,#308,.F.);
#391=ORIENTED_EDGE('',*,*,#309,.T.);
#392=ORIENTED_EDGE('',*,*,#310,.F.);
#393=ORIENTED_EDGE('',*,*,#306,.F.);
#394=ORIENTED_EDGE('',*,*,#311,.F.);
#395=ORIENTED_EDGE('',*,*,#312,.T.);
#396=ORIENTED_EDGE('',*,*,#313,.F.);
#397=ORIENTED_EDGE('',*,*,#309,.F.);
#398=ORIENTED_EDGE('',*,*,#314,.F.);
#399=ORIENTED_EDGE('',*,*,#295,.T.);
#400=ORIENTED_EDGE('',*,*,#315,.F.);
#401=ORIENTED_EDGE('',*,*,#312,.F.);
#402=ORIENTED_EDGE('',*,*,#313,.T.);
#403=ORIENTED_EDGE('',*,*,#315,.T.);
#404=ORIENTED_EDGE('',*,*,#294,.T.);
#405=ORIENTED_EDGE('',*,*,#298,.T.);
#406=ORIENTED_EDGE('',*,*,#301,.T.);
#407=ORIENTED_EDGE('',*,*,#304,.T.);
#408=ORIENTED_EDGE('',*,*,#307,.T.);
#409=ORIENTED_EDGE('',*,*,#310,.T.);
#410=ORIENTED_EDGE('',*,*,#273,.F.);
#411=ORIENTED_EDGE('',*,*,#316,.T.);
#412=ORIENTED_EDGE('',*,*,#280,.F.);
#413=ORIENTED_EDGE('',*,*,#317,.F.);
#414=ORIENTED_EDGE('',*,*,#318,.F.);
#415=ORIENTED_EDGE('',*,*,#319,.T.);
#416=ORIENTED_EDGE('',*,*,#320,.F.);
#417=ORIENTED_EDGE('',*,*,#321,.F.);
#418=ORIENTED_EDGE('',*,*,#322,.T.);
#419=ORIENTED_EDGE('',*,*,#321,.T.);
#420=ORIENTED_EDGE('',*,*,#323,.F.);
#421=ORIENTED_EDGE('',*,*,#324,.F.);
#422=ORIENTED_EDGE('',*,*,#325,.F.);
#423=ORIENTED_EDGE('',*,*,#324,.T.);
#424=ORIENTED_EDGE('',*,*,#326,.F.);
#425=ORIENTED_EDGE('',*,*,#327,.F.);
#426=ORIENTED_EDGE('',*,*,#328,.T.);
#427=ORIENTED_EDGE('',*,*,#327,.T.);
#428=ORIENTED_EDGE('',*,*,#329,.F.);
#429=ORIENTED_EDGE('',*,*,#330,.F.);
#430=ORIENTED_EDGE('',*,*,#331,.F.);
#431=ORIENTED_EDGE('',*,*,#330,.T.);
#432=ORIENTED_EDGE('',*,*,#332,.F.);
#433=ORIENTED_EDGE('',*,*,#333,.F.);
#434=ORIENTED_EDGE('',*,*,#334,.T.);
#435=ORIENTED_EDGE('',*,*,#333,.T.);
#436=ORIENTED_EDGE('',*,*,#335,.F.);
#437=ORIENTED_EDGE('',*,*,#336,.F.);
#438=ORIENTED_EDGE('',*,*,#337,.F.);
#439=ORIENTED_EDGE('',*,*,#336,.T.);
#440=ORIENTED_EDGE('',*,*,#338,.F.);
#441=ORIENTED_EDGE('',*,*,#339,.F.);
#442=ORIENTED_EDGE('',*,*,#340,.T.);
#443=ORIENTED_EDGE('',*,*,#339,.T.);
#444=ORIENTED_EDGE('',*,*,#341,.F.);
#445=ORIENTED_EDGE('',*,*,#319,.F.);
#446=ORIENTED_EDGE('',*,*,#341,.T.);
#447=ORIENTED_EDGE('',*,*,#338,.T.);
#448=ORIENTED_EDGE('',*,*,#335,.T.);
#449=ORIENTED_EDGE('',*,*,#332,.T.);
#450=ORIENTED_EDGE('',*,*,#329,.T.);
#451=ORIENTED_EDGE('',*,*,#326,.T.);
#452=ORIENTED_EDGE('',*,*,#323,.T.);
#453=ORIENTED_EDGE('',*,*,#320,.T.);
#454=ORIENTED_EDGE('',*,*,#292,.F.);
#455=ORIENTED_EDGE('',*,*,#314,.T.);
#456=ORIENTED_EDGE('',*,*,#311,.T.);
#457=ORIENTED_EDGE('',*,*,#308,.T.);
#458=ORIENTED_EDGE('',*,*,#305,.T.);
#459=ORIENTED_EDGE('',*,*,#302,.T.);
#460=ORIENTED_EDGE('',*,*,#299,.T.);
#461=ORIENTED_EDGE('',*,*,#296,.T.);
#462=ORIENTED_EDGE('',*,*,#274,.T.);
#463=ORIENTED_EDGE('',*,*,#270,.F.);
#464=ORIENTED_EDGE('',*,*,#317,.T.);
#465=ORIENTED_EDGE('',*,*,#279,.F.);
#466=ORIENTED_EDGE('',*,*,#283,.T.);
#467=ORIENTED_EDGE('',*,*,#289,.F.);
#468=ORIENTED_EDGE('',*,*,#290,.T.);
#469=ORIENTED_EDGE('',*,*,#285,.F.);
#470=ORIENTED_EDGE('',*,*,#340,.F.);
#471=ORIENTED_EDGE('',*,*,#318,.T.);
#472=ORIENTED_EDGE('',*,*,#322,.F.);
#473=ORIENTED_EDGE('',*,*,#325,.T.);
#474=ORIENTED_EDGE('',*,*,#328,.F.);
#475=ORIENTED_EDGE('',*,*,#331,.T.);
#476=ORIENTED_EDGE('',*,*,#334,.F.);
#477=ORIENTED_EDGE('',*,*,#337,.T.);
#478=ORIENTED_EDGE('',*,*,#284,.F.);
#479=ORIENTED_EDGE('',*,*,#291,.F.);
#480=ORIENTED_EDGE('',*,*,#287,.F.);
#481=ORIENTED_EDGE('',*,*,#281,.F.);
#482=ORIENTED_EDGE('',*,*,#277,.F.);
#483=ORIENTED_EDGE('',*,*,#316,.F.);
#484=ORIENTED_EDGE('',*,*,#272,.F.);
#485=ORIENTED_EDGE('',*,*,#276,.F.);
#486=CYLINDRICAL_SURFACE('',#535,2.2);
#487=CYLINDRICAL_SURFACE('',#539,2.2);
#488=CYLINDRICAL_SURFACE('',#543,2.2);
#489=CYLINDRICAL_SURFACE('',#546,2.2);
#490=CYLINDRICAL_SURFACE('',#561,5.);
#491=CYLINDRICAL_SURFACE('',#565,5.);
#492=CYLINDRICAL_SURFACE('',#569,5.);
#493=CYLINDRICAL_SURFACE('',#573,5.);
#494=ADVANCED_FACE('',(#37),#486,.F.);
#495=ADVANCED_FACE('',(#38),#18,.T.);
#496=ADVANCED_FACE('',(#39),#487,.F.);
#497=ADVANCED_FACE('',(#40),#19,.T.);
#498=ADVANCED_FACE('',(#41),#488,.F.);
#499=ADVANCED_FACE('',(#42),#489,.F.);
#500=ADVANCED_FACE('',(#43),#20,.T.);
#501=ADVANCED_FACE('',(#44),#21,.T.);
#502=ADVANCED_FACE('',(#45),#22,.T.);
#503=ADVANCED_FACE('',(#46),#23,.T.);
#504=ADVANCED_FACE('',(#47),#24,.T.);
#505=ADVANCED_FACE('',(#48),#25,.T.);
#506=ADVANCED_FACE('',(#49),#26,.T.);
#507=ADVANCED_FACE('',(#50),#27,.T.);
#508=ADVANCED_FACE('',(#51),#28,.T.);
#509=ADVANCED_FACE('',(#52),#29,.T.);
#510=ADVANCED_FACE('',(#53),#30,.T.);
#511=ADVANCED_FACE('',(#54),#31,.T.);
#512=ADVANCED_FACE('',(#55),#490,.T.);
#513=ADVANCED_FACE('',(#56),#32,.T.);
#514=ADVANCED_FACE('',(#57),#491,.T.);
#515=ADVANCED_FACE('',(#58),#33,.T.);
#516=ADVANCED_FACE('',(#59),#492,.T.);
#517=ADVANCED_FACE('',(#60),#34,.T.);
#518=ADVANCED_FACE('',(#61),#493,.T.);
#519=ADVANCED_FACE('',(#62,#15,#16),#35,.T.);
#520=ADVANCED_FACE('',(#63,#17),#36,.F.);
#521=CLOSED_SHELL('',(#494,#495,#496,#497,#498,#499,#500,#501,#502,#503,
#504,#505,#506,#507,#508,#509,#510,#511,#512,#513,#514,#515,#516,#517,#518,
#519,#520));
#522=DERIVED_UNIT_ELEMENT(#524,1.);
#523=DERIVED_UNIT_ELEMENT(#875,-3.);
#524=(
MASS_UNIT()
NAMED_UNIT(*)
SI_UNIT(.KILO.,.GRAM.)
);
#525=DERIVED_UNIT((#522,#523));
#526=MEASURE_REPRESENTATION_ITEM('density measure',
POSITIVE_RATIO_MEASURE(7850.),#525);
#527=PROPERTY_DEFINITION_REPRESENTATION(#532,#529);
#528=PROPERTY_DEFINITION_REPRESENTATION(#533,#530);
#529=REPRESENTATION('material name',(#531),#872);
#530=REPRESENTATION('density',(#526),#872);
#531=DESCRIPTIVE_REPRESENTATION_ITEM('Steel','Steel');
#532=PROPERTY_DEFINITION('material property','material name',#882);
#533=PROPERTY_DEFINITION('material property','density of part',#882);
#534=AXIS2_PLACEMENT_3D('',#722,#578,#579);
#535=AXIS2_PLACEMENT_3D('',#723,#580,#581);
#536=AXIS2_PLACEMENT_3D('',#726,#582,#583);
#537=AXIS2_PLACEMENT_3D('',#730,#585,#586);
#538=AXIS2_PLACEMENT_3D('',#732,#588,#589);
#539=AXIS2_PLACEMENT_3D('',#738,#593,#594);
#540=AXIS2_PLACEMENT_3D('',#741,#595,#596);
#541=AXIS2_PLACEMENT_3D('',#745,#598,#599);
#542=AXIS2_PLACEMENT_3D('',#747,#601,#602);
#543=AXIS2_PLACEMENT_3D('',#753,#606,#607);
#544=AXIS2_PLACEMENT_3D('',#755,#608,#609);
#545=AXIS2_PLACEMENT_3D('',#757,#610,#611);
#546=AXIS2_PLACEMENT_3D('',#759,#613,#614);
#547=AXIS2_PLACEMENT_3D('',#761,#615,#616);
#548=AXIS2_PLACEMENT_3D('',#764,#618,#619);
#549=AXIS2_PLACEMENT_3D('',#765,#620,#621);
#550=AXIS2_PLACEMENT_3D('',#768,#624,#625);
#551=AXIS2_PLACEMENT_3D('',#777,#630,#631);
#552=AXIS2_PLACEMENT_3D('',#783,#635,#636);
#553=AXIS2_PLACEMENT_3D('',#789,#640,#641);
#554=AXIS2_PLACEMENT_3D('',#795,#645,#646);
#555=AXIS2_PLACEMENT_3D('',#801,#650,#651);
#556=AXIS2_PLACEMENT_3D('',#807,#655,#656);
#557=AXIS2_PLACEMENT_3D('',#813,#660,#661);
#558=AXIS2_PLACEMENT_3D('',#816,#664,#665);
#559=AXIS2_PLACEMENT_3D('',#817,#666,#667);
#560=AXIS2_PLACEMENT_3D('',#820,#670,#671);
#561=AXIS2_PLACEMENT_3D('',#829,#676,#677);
#562=AXIS2_PLACEMENT_3D('',#831,#678,#679);
#563=AXIS2_PLACEMENT_3D('',#833,#680,#681);
#564=AXIS2_PLACEMENT_3D('',#835,#683,#684);
#565=AXIS2_PLACEMENT_3D('',#841,#688,#689);
#566=AXIS2_PLACEMENT_3D('',#843,#690,#691);
#567=AXIS2_PLACEMENT_3D('',#845,#692,#693);
#568=AXIS2_PLACEMENT_3D('',#847,#695,#696);
#569=AXIS2_PLACEMENT_3D('',#853,#700,#701);
#570=AXIS2_PLACEMENT_3D('',#855,#702,#703);
#571=AXIS2_PLACEMENT_3D('',#857,#704,#705);
#572=AXIS2_PLACEMENT_3D('',#859,#707,#708);
#573=AXIS2_PLACEMENT_3D('',#865,#712,#713);
#574=AXIS2_PLACEMENT_3D('',#866,#714,#715);
#575=AXIS2_PLACEMENT_3D('',#867,#716,#717);
#576=AXIS2_PLACEMENT_3D('',#868,#718,#719);
#577=AXIS2_PLACEMENT_3D('',#869,#720,#721);
#578=DIRECTION('axis',(0.,0.,1.));
#579=DIRECTION('refdir',(1.,0.,0.));
#580=DIRECTION('center_axis',(0.,0.,-1.));
#581=DIRECTION('ref_axis',(0.707106781186548,-0.707106781186547,0.));
#582=DIRECTION('center_axis',(0.,0.,1.));
#583=DIRECTION('ref_axis',(0.707106781186548,-0.707106781186547,0.));
#584=DIRECTION('',(0.,0.,-1.));
#585=DIRECTION('center_axis',(0.,0.,-1.));
#586=DIRECTION('ref_axis',(0.707106781186548,-0.707106781186547,0.));
#587=DIRECTION('',(0.,0.,1.));
#588=DIRECTION('center_axis',(-1.,0.,0.));
#589=DIRECTION('ref_axis',(0.,-1.,0.));
#590=DIRECTION('',(0.,-1.,0.));
#591=DIRECTION('',(0.,0.,1.));
#592=DIRECTION('',(0.,-1.,0.));
#593=DIRECTION('center_axis',(0.,0.,1.));
#594=DIRECTION('ref_axis',(-0.707106781186547,-0.707106781186548,0.));
#595=DIRECTION('center_axis',(0.,0.,-1.));
#596=DIRECTION('ref_axis',(-0.707106781186547,-0.707106781186548,0.));
#597=DIRECTION('',(0.,0.,1.));
#598=DIRECTION('center_axis',(0.,0.,1.));
#599=DIRECTION('ref_axis',(-0.707106781186547,-0.707106781186548,0.));
#600=DIRECTION('',(0.,0.,-1.));
#601=DIRECTION('center_axis',(1.,0.,0.));
#602=DIRECTION('ref_axis',(0.,1.,0.));
#603=DIRECTION('',(0.,1.,0.));
#604=DIRECTION('',(0.,0.,-1.));
#605=DIRECTION('',(0.,1.,0.));
#606=DIRECTION('center_axis',(0.,0.,1.));
#607=DIRECTION('ref_axis',(0.707106781186548,0.707106781186547,0.));
#608=DIRECTION('center_axis',(0.,0.,-1.));
#609=DIRECTION('ref_axis',(0.707106781186548,0.707106781186547,0.));
#610=DIRECTION('center_axis',(0.,0.,1.));
#611=DIRECTION('ref_axis',(0.707106781186548,0.707106781186547,0.));
#612=DIRECTION('',(0.,0.,-1.));
#613=DIRECTION('center_axis',(0.,0.,1.));
#614=DIRECTION('ref_axis',(-0.707106781186547,0.707106781186548,0.));
#615=DIRECTION('center_axis',(0.,0.,-1.));
#616=DIRECTION('ref_axis',(-0.707106781186547,0.707106781186548,0.));
#617=DIRECTION('',(0.,0.,1.));
#618=DIRECTION('center_axis',(0.,0.,1.));
#619=DIRECTION('ref_axis',(-0.707106781186547,0.707106781186548,0.));
#620=DIRECTION('center_axis',(0.,-1.,0.));
#621=DIRECTION('ref_axis',(1.,0.,0.));
#622=DIRECTION('',(1.,0.,0.));
#623=DIRECTION('',(1.,0.,0.));
#624=DIRECTION('center_axis',(-1.,0.,0.));
#625=DIRECTION('ref_axis',(0.,-1.,0.));
#626=DIRECTION('',(0.,-1.,0.));
#627=DIRECTION('',(0.,0.,1.));
#628=DIRECTION('',(0.,-1.,0.));
#629=DIRECTION('',(0.,0.,1.));
#630=DIRECTION('center_axis',(0.,-1.,0.));
#631=DIRECTION('ref_axis',(1.,0.,0.));
#632=DIRECTION('',(-1.,0.,0.));
#633=DIRECTION('',(0.,0.,1.));
#634=DIRECTION('',(1.,0.,0.));
#635=DIRECTION('center_axis',(1.,0.,0.));
#636=DIRECTION('ref_axis',(0.,1.,0.));
#637=DIRECTION('',(0.,-1.,0.));
#638=DIRECTION('',(0.,0.,1.));
#639=DIRECTION('',(0.,1.,0.));
#640=DIRECTION('center_axis',(0.,1.,0.));
#641=DIRECTION('ref_axis',(-1.,0.,0.));
#642=DIRECTION('',(1.,0.,0.));
#643=DIRECTION('',(0.,0.,1.));
#644=DIRECTION('',(-1.,0.,0.));
#645=DIRECTION('center_axis',(-1.,0.,0.));
#646=DIRECTION('ref_axis',(0.,-1.,0.));
#647=DIRECTION('',(0.,1.,0.));
#648=DIRECTION('',(0.,0.,1.));
#649=DIRECTION('',(0.,-1.,0.));
#650=DIRECTION('center_axis',(0.,-1.,0.));
#651=DIRECTION('ref_axis',(1.,0.,0.));
#652=DIRECTION('',(-1.,0.,0.));
#653=DIRECTION('',(0.,0.,1.));
#654=DIRECTION('',(1.,0.,0.));
#655=DIRECTION('center_axis',(1.,0.,0.));
#656=DIRECTION('ref_axis',(0.,1.,0.));
#657=DIRECTION('',(0.,-1.,0.));
#658=DIRECTION('',(0.,0.,1.));
#659=DIRECTION('',(0.,1.,0.));
#660=DIRECTION('center_axis',(7.93016446160826E-17,-1.,0.));
#661=DIRECTION('ref_axis',(1.,7.93016446160826E-17,0.));
#662=DIRECTION('',(-1.,-7.93016446160826E-17,0.));
#663=DIRECTION('',(1.,7.93016446160826E-17,0.));
#664=DIRECTION('center_axis',(0.,0.,1.));
#665=DIRECTION('ref_axis',(1.,0.,0.));
#666=DIRECTION('center_axis',(0.,1.,0.));
#667=DIRECTION('ref_axis',(-1.,0.,0.));
#668=DIRECTION('',(-1.,0.,0.));
#669=DIRECTION('',(-1.,0.,0.));
#670=DIRECTION('center_axis',(0.,1.,0.));
#671=DIRECTION('ref_axis',(-1.,0.,0.));
#672=DIRECTION('',(1.,0.,0.));
#673=DIRECTION('',(0.,0.,1.));
#674=DIRECTION('',(-1.,0.,0.));
#675=DIRECTION('',(0.,0.,1.));
#676=DIRECTION('center_axis',(0.,0.,1.));
#677=DIRECTION('ref_axis',(1.,8.88178419700125E-16,0.));
#678=DIRECTION('center_axis',(0.,0.,1.));
#679=DIRECTION('ref_axis',(1.,8.88178419700125E-16,0.));
#680=DIRECTION('center_axis',(0.,0.,1.));
#681=DIRECTION('ref_axis',(1.,8.88178419700125E-16,0.));
#682=DIRECTION('',(0.,0.,1.));
#683=DIRECTION('center_axis',(1.,0.,0.));
#684=DIRECTION('ref_axis',(0.,1.,0.));
#685=DIRECTION('',(0.,-1.,0.));
#686=DIRECTION('',(0.,1.,0.));
#687=DIRECTION('',(0.,0.,1.));
#688=DIRECTION('center_axis',(0.,0.,1.));
#689=DIRECTION('ref_axis',(0.,-1.,0.));
#690=DIRECTION('center_axis',(0.,0.,1.));
#691=DIRECTION('ref_axis',(0.,-1.,0.));
#692=DIRECTION('center_axis',(0.,0.,1.));
#693=DIRECTION('ref_axis',(0.,-1.,0.));
#694=DIRECTION('',(0.,0.,1.));
#695=DIRECTION('center_axis',(0.,-1.,0.));
#696=DIRECTION('ref_axis',(1.,0.,0.));
#697=DIRECTION('',(-1.,0.,0.));
#698=DIRECTION('',(1.,0.,0.));
#699=DIRECTION('',(0.,0.,1.));
#700=DIRECTION('center_axis',(0.,0.,1.));
#701=DIRECTION('ref_axis',(-1.,-8.88178419700125E-16,0.));
#702=DIRECTION('center_axis',(0.,0.,1.));
#703=DIRECTION('ref_axis',(-1.,-8.88178419700125E-16,0.));
#704=DIRECTION('center_axis',(0.,0.,1.));
#705=DIRECTION('ref_axis',(-1.,-8.88178419700125E-16,0.));
#706=DIRECTION('',(0.,0.,1.));
#707=DIRECTION('center_axis',(-1.,0.,0.));
#708=DIRECTION('ref_axis',(0.,-1.,0.));
#709=DIRECTION('',(0.,1.,0.));
#710=DIRECTION('',(0.,-1.,0.));
#711=DIRECTION('',(0.,0.,1.));
#712=DIRECTION('center_axis',(0.,0.,1.));
#713=DIRECTION('ref_axis',(0.,1.,0.));
#714=DIRECTION('center_axis',(0.,0.,1.));
#715=DIRECTION('ref_axis',(0.,1.,0.));
#716=DIRECTION('center_axis',(0.,0.,1.));
#717=DIRECTION('ref_axis',(0.,1.,0.));
#718=DIRECTION('center_axis',(0.,0.,1.));
#719=DIRECTION('ref_axis',(-1.,0.,0.));
#720=DIRECTION('center_axis',(0.,0.,1.));
#721=DIRECTION('ref_axis',(-1.,0.,0.));
#722=CARTESIAN_POINT('',(0.,0.,0.));
#723=CARTESIAN_POINT('Origin',(3.80000008940697,-17.8,60.));
#724=CARTESIAN_POINT('',(3.80000008940697,-20.,62.));
#725=CARTESIAN_POINT('',(6.00000008940697,-17.8,62.));
#726=CARTESIAN_POINT('Origin',(3.80000008940697,-17.8,62.));
#727=CARTESIAN_POINT('',(6.00000008940697,-17.8,60.));
#728=CARTESIAN_POINT('',(6.00000008940697,-17.8,60.));
#729=CARTESIAN_POINT('',(3.80000008940697,-20.,60.));
#730=CARTESIAN_POINT('Origin',(3.80000008940697,-17.8,60.));
#731=CARTESIAN_POINT('',(3.80000008940697,-20.,60.));
#732=CARTESIAN_POINT('Origin',(6.00000008940697,-15.0000002235174,60.));
#733=CARTESIAN_POINT('',(6.00000008940697,-17.2000002235174,62.));
#734=CARTESIAN_POINT('',(6.00000008940697,-15.0000002235174,62.));
#735=CARTESIAN_POINT('',(6.00000008940697,-17.2000002235174,60.));
#736=CARTESIAN_POINT('',(6.00000008940697,-17.2000002235174,60.));
#737=CARTESIAN_POINT('',(6.00000008940697,-15.0000002235174,60.));
#738=CARTESIAN_POINT('Origin',(-3.80000008940697,-17.8,60.));
#739=CARTESIAN_POINT('',(-3.80000008940697,-20.,60.));
#740=CARTESIAN_POINT('',(-6.00000008940697,-17.8,60.));
#741=CARTESIAN_POINT('Origin',(-3.80000008940697,-17.8,60.));
#742=CARTESIAN_POINT('',(-6.00000008940697,-17.8,62.));
#743=CARTESIAN_POINT('',(-6.00000008940697,-17.8,60.));
#744=CARTESIAN_POINT('',(-3.80000008940697,-20.,62.));
#745=CARTESIAN_POINT('Origin',(-3.80000008940697,-17.8,62.));
#746=CARTESIAN_POINT('',(-3.80000008940697,-20.,60.));
#747=CARTESIAN_POINT('Origin',(-6.00000008940697,-18.,60.));
#748=CARTESIAN_POINT('',(-6.00000008940697,-17.2000002235174,60.));
#749=CARTESIAN_POINT('',(-6.00000008940697,-20.0000002980232,60.));
#750=CARTESIAN_POINT('',(-6.00000008940697,-17.2000002235174,62.));
#751=CARTESIAN_POINT('',(-6.00000008940697,-17.2000002235174,60.));
#752=CARTESIAN_POINT('',(-6.00000008940697,-20.0000002980232,62.));
#753=CARTESIAN_POINT('Origin',(3.80000008940697,-17.2000002235174,60.));
#754=CARTESIAN_POINT('',(3.80000008940697,-15.0000002235174,60.));
#755=CARTESIAN_POINT('Origin',(3.80000008940697,-17.2000002235174,60.));
#756=CARTESIAN_POINT('',(3.80000008940697,-15.0000002235174,62.));
#757=CARTESIAN_POINT('Origin',(3.80000008940697,-17.2000002235174,62.));
#758=CARTESIAN_POINT('',(3.80000008940697,-15.0000002235174,60.));
#759=CARTESIAN_POINT('Origin',(-3.80000008940697,-17.2000002235174,60.));
#760=CARTESIAN_POINT('',(-3.80000008940697,-15.0000002235174,60.));
#761=CARTESIAN_POINT('Origin',(-3.80000008940697,-17.2000002235174,60.));
#762=CARTESIAN_POINT('',(-3.80000008940697,-15.0000002235174,62.));
#763=CARTESIAN_POINT('',(-3.80000008940697,-15.0000002235174,60.));
#764=CARTESIAN_POINT('Origin',(-3.80000008940697,-17.2000002235174,62.));
#765=CARTESIAN_POINT('Origin',(-6.00000008940697,-15.0000002235174,60.));
#766=CARTESIAN_POINT('',(-6.00000008940697,-15.0000002235174,62.));
#767=CARTESIAN_POINT('',(-6.00000008940697,-15.0000002235174,60.));
#768=CARTESIAN_POINT('Origin',(28.,18.,60.));
#769=CARTESIAN_POINT('',(28.,18.,62.));
#770=CARTESIAN_POINT('',(28.,-20.0000002980232,62.));
#771=CARTESIAN_POINT('',(28.,-0.500000074505805,62.));
#772=CARTESIAN_POINT('',(28.,-20.0000002980232,64.));
#773=CARTESIAN_POINT('',(28.,-20.0000002980232,60.));
#774=CARTESIAN_POINT('',(28.,18.,64.));
#775=CARTESIAN_POINT('',(28.,18.,64.));
#776=CARTESIAN_POINT('',(28.,18.,60.));
#777=CARTESIAN_POINT('Origin',(28.,-20.,60.));
#778=CARTESIAN_POINT('',(30.,-20.,62.));
#779=CARTESIAN_POINT('',(30.,-20.,62.));
#780=CARTESIAN_POINT('',(30.,-20.,64.));
#781=CARTESIAN_POINT('',(30.,-20.,60.));
#782=CARTESIAN_POINT('',(30.,-20.,64.));
#783=CARTESIAN_POINT('Origin',(30.,-20.,60.));
#784=CARTESIAN_POINT('',(30.,20.,62.));
#785=CARTESIAN_POINT('',(30.,20.,62.));
#786=CARTESIAN_POINT('',(30.,20.,64.));
#787=CARTESIAN_POINT('',(30.,20.,60.));
#788=CARTESIAN_POINT('',(30.,20.,64.));
#789=CARTESIAN_POINT('Origin',(30.,20.,60.));
#790=CARTESIAN_POINT('',(-30.,20.,62.));
#791=CARTESIAN_POINT('',(-30.,20.,62.));
#792=CARTESIAN_POINT('',(-30.,20.,64.));
#793=CARTESIAN_POINT('',(-30.,20.,60.));
#794=CARTESIAN_POINT('',(-30.,20.,64.));
#795=CARTESIAN_POINT('Origin',(-30.,20.,60.));
#796=CARTESIAN_POINT('',(-30.,-20.,62.));
#797=CARTESIAN_POINT('',(-30.,-20.,62.));
#798=CARTESIAN_POINT('',(-30.,-20.,64.));
#799=CARTESIAN_POINT('',(-30.,-20.,60.));
#800=CARTESIAN_POINT('',(-30.,-20.,64.));
#801=CARTESIAN_POINT('Origin',(-30.,-20.,60.));
#802=CARTESIAN_POINT('',(-28.,-20.,62.));
#803=CARTESIAN_POINT('',(30.,-20.,62.));
#804=CARTESIAN_POINT('',(-28.,-20.,64.));
#805=CARTESIAN_POINT('',(-28.,-20.,60.));
#806=CARTESIAN_POINT('',(30.,-20.,64.));
#807=CARTESIAN_POINT('Origin',(-28.,-20.,60.));
#808=CARTESIAN_POINT('',(-28.,18.,62.));
#809=CARTESIAN_POINT('',(-28.,-18.,62.));
#810=CARTESIAN_POINT('',(-28.,18.,64.));
#811=CARTESIAN_POINT('',(-28.,18.,60.));
#812=CARTESIAN_POINT('',(-28.,-18.,64.));
#813=CARTESIAN_POINT('Origin',(-28.,18.,60.));
#814=CARTESIAN_POINT('',(-28.,18.,62.));
#815=CARTESIAN_POINT('',(-28.,18.,64.));
#816=CARTESIAN_POINT('Origin',(0.,-1.49011611938477E-7,64.));
#817=CARTESIAN_POINT('Origin',(30.,-20.,60.));
#818=CARTESIAN_POINT('',(30.,-20.,60.));
#819=CARTESIAN_POINT('',(30.,-20.,62.));
#820=CARTESIAN_POINT('Origin',(30.,25.,60.));
#821=CARTESIAN_POINT('',(-30.,25.,60.));
#822=CARTESIAN_POINT('',(30.,25.,60.));
#823=CARTESIAN_POINT('',(-35.,25.,60.));
#824=CARTESIAN_POINT('',(-30.,25.,62.));
#825=CARTESIAN_POINT('',(-30.,25.,60.));
#826=CARTESIAN_POINT('',(30.,25.,62.));
#827=CARTESIAN_POINT('',(-35.,25.,62.));
#828=CARTESIAN_POINT('',(30.,25.,60.));
#829=CARTESIAN_POINT('Origin',(30.,20.,60.));
#830=CARTESIAN_POINT('',(35.,20.,60.));
#831=CARTESIAN_POINT('Origin',(30.,20.,60.));
#832=CARTESIAN_POINT('',(35.,20.,62.));
#833=CARTESIAN_POINT('Origin',(30.,20.,62.));
#834=CARTESIAN_POINT('',(35.,20.,60.));
#835=CARTESIAN_POINT('Origin',(35.,-20.,60.));
#836=CARTESIAN_POINT('',(35.,-20.,60.));
#837=CARTESIAN_POINT('',(35.,25.,60.));
#838=CARTESIAN_POINT('',(35.,-20.,62.));
#839=CARTESIAN_POINT('',(35.,25.,62.));
#840=CARTESIAN_POINT('',(35.,-20.,60.));
#841=CARTESIAN_POINT('Origin',(30.,-20.,60.));
#842=CARTESIAN_POINT('',(30.,-25.,60.));
#843=CARTESIAN_POINT('Origin',(30.,-20.,60.));
#844=CARTESIAN_POINT('',(30.,-25.,62.));
#845=CARTESIAN_POINT('Origin',(30.,-20.,62.));
#846=CARTESIAN_POINT('',(30.,-25.,60.));
#847=CARTESIAN_POINT('Origin',(-30.,-25.,60.));
#848=CARTESIAN_POINT('',(-30.,-25.,60.));
#849=CARTESIAN_POINT('',(35.,-25.,60.));
#850=CARTESIAN_POINT('',(-30.,-25.,62.));
#851=CARTESIAN_POINT('',(35.,-25.,62.));
#852=CARTESIAN_POINT('',(-30.,-25.,60.));
#853=CARTESIAN_POINT('Origin',(-30.,-20.,60.));
#854=CARTESIAN_POINT('',(-35.,-20.,60.));
#855=CARTESIAN_POINT('Origin',(-30.,-20.,60.));
#856=CARTESIAN_POINT('',(-35.,-20.,62.));
#857=CARTESIAN_POINT('Origin',(-30.,-20.,62.));
#858=CARTESIAN_POINT('',(-35.,-20.,60.));
#859=CARTESIAN_POINT('Origin',(-35.,20.,60.));
#860=CARTESIAN_POINT('',(-35.,20.,60.));
#861=CARTESIAN_POINT('',(-35.,-25.,60.));
#862=CARTESIAN_POINT('',(-35.,20.,62.));
#863=CARTESIAN_POINT('',(-35.,-25.,62.));
#864=CARTESIAN_POINT('',(-35.,20.,60.));
#865=CARTESIAN_POINT('Origin',(-30.,20.,60.));
#866=CARTESIAN_POINT('Origin',(-30.,20.,60.));
#867=CARTESIAN_POINT('Origin',(-30.,20.,62.));
#868=CARTESIAN_POINT('Origin',(0.,0.,62.));
#869=CARTESIAN_POINT('Origin',(0.,0.,60.));
#870=UNCERTAINTY_MEASURE_WITH_UNIT(LENGTH_MEASURE(0.01),#874,
'DISTANCE_ACCURACY_VALUE',
'Maximum model space distance between geometric entities at asserted c
onnectivities');
#871=UNCERTAINTY_MEASURE_WITH_UNIT(LENGTH_MEASURE(0.01),#874,
'DISTANCE_ACCURACY_VALUE',
'Maximum model space distance between geometric entities at asserted c
onnectivities');
#872=(
GEOMETRIC_REPRESENTATION_CONTEXT(3)
GLOBAL_UNCERTAINTY_ASSIGNED_CONTEXT((#870))
GLOBAL_UNIT_ASSIGNED_CONTEXT((#874,#876,#877))
REPRESENTATION_CONTEXT('','3D')
);
#873=(
GEOMETRIC_REPRESENTATION_CONTEXT(3)
GLOBAL_UNCERTAINTY_ASSIGNED_CONTEXT((#871))
GLOBAL_UNIT_ASSIGNED_CONTEXT((#874,#876,#877))
REPRESENTATION_CONTEXT('','3D')
);
#874=(
LENGTH_UNIT()
NAMED_UNIT(*)
SI_UNIT(.MILLI.,.METRE.)
);
#875=(
LENGTH_UNIT()
NAMED_UNIT(*)
SI_UNIT($,.METRE.)
);
#876=(
NAMED_UNIT(*)
PLANE_ANGLE_UNIT()
SI_UNIT($,.RADIAN.)
);
#877=(
NAMED_UNIT(*)
SI_UNIT($,.STERADIAN.)
SOLID_ANGLE_UNIT()
);
#878=SHAPE_DEFINITION_REPRESENTATION(#879,#880);
#879=PRODUCT_DEFINITION_SHAPE('',$,#882);
#880=SHAPE_REPRESENTATION('',(#534),#872);
#881=PRODUCT_DEFINITION_CONTEXT('part definition',#886,'design');
#882=PRODUCT_DEFINITION('2026-05-28-11-43-07-051','BackCover',#883,#881);
#883=PRODUCT_DEFINITION_FORMATION('',$,#888);
#884=PRODUCT_RELATED_PRODUCT_CATEGORY('BackCover','BackCover',(#888));
#885=APPLICATION_PROTOCOL_DEFINITION('international standard',
'automotive_design',2009,#886);
#886=APPLICATION_CONTEXT(
'Core Data for Automotive Mechanical Design Process');
#887=PRODUCT_CONTEXT('part definition',#886,'mechanical');
#888=PRODUCT('2026-05-28-11-43-07-051','BackCover',$,(#887));
#889=PRESENTATION_STYLE_ASSIGNMENT((#890));
#890=SURFACE_STYLE_USAGE(.BOTH.,#891);
#891=SURFACE_SIDE_STYLE('',(#892));
#892=SURFACE_STYLE_FILL_AREA(#893);
#893=FILL_AREA_STYLE('Steel - Satin',(#894));
#894=FILL_AREA_STYLE_COLOUR('Steel - Satin',#895);
#895=COLOUR_RGB('Steel - Satin',0.627450980392157,0.627450980392157,0.627450980392157);
ENDSEC;
END-ISO-10303-21;
